<svg width="30" height="31" viewBox="0 0 30 31" fill="none" xmlns="http://www.w3.org/2000/svg">
<g filter="url(#filter0_d_560_2947)">
<path d="M24.4319 8.15559L17.0717 4.78812C16.2807 4.42651 15.6328 4.26078 15 4.27584C14.3672 4.26078 13.7193 4.42651 12.9283 4.78812L5.56808 8.15559C5.04074 8.38912 4.76953 8.82607 4.76953 9.27054C4.76953 9.72255 5.04074 10.152 5.56808 10.3855L8.48354 11.7039L13.3728 9.42121C13.3426 9.36848 13.3276 9.32328 13.3276 9.27054C13.3276 8.7206 14.1638 8.32886 15.0226 8.32886C15.889 8.32886 16.7176 8.7206 16.7176 9.27054C16.7176 9.83555 15.889 10.2348 15.0226 10.2348C14.7589 10.2348 14.4877 10.1972 14.2467 10.1218L9.65876 12.2613L12.9283 13.7605C13.7193 14.1221 14.3672 14.2803 15 14.2728C15.6328 14.2803 16.2807 14.1221 17.0717 13.7605L24.4319 10.3855C24.9593 10.1444 25.2305 9.72255 25.2305 9.27054C25.2305 8.82607 24.9593 8.38912 24.4319 8.15559ZM9.62863 13.4667V17.8738C10.9395 18.6573 12.8002 19.1319 15 19.1319C19.4222 19.1319 22.4581 17.2259 22.4581 14.8755V12.5024L17.5312 14.7625C16.6197 15.1768 15.791 15.3877 15 15.3802C14.2165 15.3877 13.3803 15.1768 12.4688 14.7625L9.62863 13.4667ZM7.54185 12.5099V14.8755C7.54185 15.5309 7.88839 16.3068 8.51367 16.9698V12.9544L7.54185 12.5099ZM7.85073 19.6592V21.6104C7.85073 22.2507 8.2726 22.6726 8.91295 22.6726H9.22935C9.8697 22.6726 10.284 22.2507 10.284 21.6104V19.6592C10.284 19.162 10.0354 18.8004 9.62863 18.6573V17.8738C9.19169 17.6101 8.81501 17.3088 8.51367 16.9698V18.6573C8.10686 18.7929 7.85073 19.162 7.85073 19.6592Z" fill="black"/>
</g>
<defs>
<filter id="filter0_d_560_2947" x="-1" y="0" width="32" height="32" filterUnits="userSpaceOnUse" color-interpolation-filters="sRGB">
<feFlood flood-opacity="0" result="BackgroundImageFix"/>
<feColorMatrix in="SourceAlpha" type="matrix" values="0 0 0 0 0 0 0 0 0 0 0 0 0 0 0 0 0 0 127 0" result="hardAlpha"/>
<feOffset dy="4"/>
<feGaussianBlur stdDeviation="2"/>
<feComposite in2="hardAlpha" operator="out"/>
<feColorMatrix type="matrix" values="0 0 0 0 0 0 0 0 0 0 0 0 0 0 0 0 0 0 0.25 0"/>
<feBlend mode="normal" in2="BackgroundImageFix" result="effect1_dropShadow_560_2947"/>
<feBlend mode="normal" in="SourceGraphic" in2="effect1_dropShadow_560_2947" result="shape"/>
</filter>
</defs>
</svg>
