<svg width="20" height="20" viewBox="0 0 20 20" fill="none" xmlns="http://www.w3.org/2000/svg">
<path d="M8.20355 16.097C9.75992 16.097 11.2184 15.6316 12.4322 14.8364L16.7195 19.0934C17.0034 19.3649 17.3656 19.5007 17.7571 19.5007C18.5696 19.5007 19.1667 18.8703 19.1667 18.0752C19.1667 17.7067 19.0394 17.3479 18.7653 17.0764L14.5073 12.8388C15.3883 11.5976 15.9071 10.0946 15.9071 8.4655C15.9071 4.26671 12.442 0.833984 8.20355 0.833984C3.97492 0.833984 0.5 4.26671 0.5 8.4655C0.5 12.6643 3.96513 16.097 8.20355 16.097ZM8.20355 14.0607C5.10059 14.0607 2.55558 11.5394 2.55558 8.4655C2.55558 5.39156 5.10059 2.87035 8.20355 2.87035C11.3065 2.87035 13.8515 5.39156 13.8515 8.4655C13.8515 11.5394 11.3065 14.0607 8.20355 14.0607Z" fill="#007AFF"/>
</svg>
