<svg width="20" height="20" viewBox="0 0 20 20" fill="none" xmlns="http://www.w3.org/2000/svg">
<path d="M8.20355 16.096C9.75992 16.096 11.2184 15.6306 12.4322 14.8354L16.7195 19.0924C17.0034 19.3639 17.3656 19.4997 17.7571 19.4997C18.5696 19.4997 19.1667 18.8694 19.1667 18.0742C19.1667 17.7057 19.0394 17.3469 18.7653 17.0754L14.5073 12.8379C15.3883 11.5966 15.9071 10.0936 15.9071 8.46452C15.9071 4.26573 12.442 0.833008 8.20355 0.833008C3.97492 0.833008 0.5 4.26573 0.5 8.46452C0.5 12.6633 3.96513 16.096 8.20355 16.096ZM8.20355 14.0597C5.10059 14.0597 2.55558 11.5385 2.55558 8.46452C2.55558 5.39058 5.10059 2.86937 8.20355 2.86937C11.3065 2.86937 13.8515 5.39058 13.8515 8.46452C13.8515 11.5385 11.3065 14.0597 8.20355 14.0597Z" fill="#8E8E93"/>
</svg>
